<svg xmlns="http://www.w3.org/2000/svg" width="96" height="96" id="success">
  <g fill="none" transform="translate(1 -958.362)">
    <circle cx="37.045" cy="28.409" r="12.5" fill="#50b748" fill-rule="evenodd" transform="translate(-95.253 897.271)scale(3.84)"></circle>
    <path fill="#fff" d="M65.054 979.742a.5.5 0 0 0-.36.147l-8.486 8.486a.5.5 0 0 0 .299.85l5.967.662.662 5.967a.5.5 0 0 0 .851.298l8.485-8.484a.5.5 0 0 0 .144-.41l-.707-6.363a.5.5 0 0 0-.441-.442l-6.365-.707a.5.5 0 0 0-.05-.004zm.178 1.024 5.726.636.637 5.727-7.58 7.582-.592-5.332a.5.5 0 0 0-.441-.441l-5.329-.592 7.579-7.58zm-12.2 10.998a.5.5 0 0 0-.359.146l-8.484 8.485a.5.5 0 0 0 .298.851l5.965.662.664 5.967a.5.5 0 0 0 .85.299l8.486-8.486a.5.5 0 0 0 .143-.409l-.707-6.363a.5.5 0 0 0-.442-.443l-6.363-.707a.5.5 0 0 0-.05 0v-.002zm.178 1.023 5.729.637.636 5.726-7.58 7.58-.592-5.33a.5.5 0 0 0-.443-.441l-5.33-.592 7.58-7.58zm-12.2 10.996a.5.5 0 0 0-.357.147l-8.486 8.486a.5.5 0 0 0 .299.85l5.967.664.662 5.967a.5.5 0 0 0 .851.296l8.485-8.484a.5.5 0 0 0 .142-.408l-.707-6.365a.5.5 0 0 0-.441-.442l-6.363-.707a.5.5 0 0 0-.051 0zm.18 1.024 5.727.636.637 5.729-7.58 7.58-.592-5.33a.5.5 0 0 0-.441-.443l-5.33-.592 7.58-7.58zm-12.199 10.998a.5.5 0 0 0-.359.146l-8.486 8.487a.5.5 0 0 0 .298.85l5.967.661.662 5.967a.5.5 0 0 0 .852.299l8.484-8.484a.5.5 0 0 0 .145-.41l-.707-6.364a.5.5 0 0 0-.442-.441l-6.365-.707a.5.5 0 0 0-.049 0zm.178 1.023 5.727.637.636 5.727-7.58 7.582-.592-5.332a.5.5 0 0 0-.44-.442l-5.331-.592 7.58-7.58z" color="#000" font-family="sans-serif" font-weight="400" overflow="visible" style="line-height:normal;text-indent:0;text-align:start;text-decoration-line:none;text-decoration-style:solid;text-decoration-color:#000;text-transform:none;block-progression:tb;isolation:auto;mix-blend-mode:normal"></path>
  </g>
</svg>
