<svg xmlns="http://www.w3.org/2000/svg" viewBox="0 0 500 500"><path fill="#aa5" fill-opacity=".4" stroke="#aa5" stroke-opacity=".4" stroke-width="3" d="M219.3 475.7c17.5.2 45.9.2 63 0 17.2-.1 2.9-.2-31.8-.2-34.6 0-48.7.1-31.2.2z"/><path fill="#80aa2a" stroke="#80aa2a" stroke-width="3" d="M238 34c-10 1-24.5 4.3-35.1 7.8-10.5 3.5-26.2 11.9-25.3 13.4.4.6.3.8-.3.5-1-.6-2.8.6-25.7 17.5-8 6-14.8 10.8-15.1 10.8-.9 0-9.3 5.9-11.3 7.9-.9 1-8.4 6.6-16.7 12.5-8.2 5.9-15.6 11.5-16.2 12.4-.7.9-1.3 1.3-1.3.9 0-.5-.6-.3-1.3.3-.6.6-3 2.4-5.2 4s-4.5 3.4-5.2 4c-.7.5-1.6 1-2 1-.5 0-4.7 3.6-9.5 8-9.8 9.1-23.4 26.2-22.2 28.1.4.7.3 1-.3.6-1.1-.7-7.9 12.5-12 23.2-5.2 13.8-7.4 24.9-8 40.7-.8 20.3.9 30 9.8 56.6 3.8 11.3 6.9 21.4 6.9 22.3 0 1.9 19.4 61.1 25.2 77 6.4 17.5 16 34.8 22.8 41.5 1.7 1.6 3 3.4 3 3.9 0 2.3 21.9 20.9 29.2 24.8 2.1 1.1 3.5 2.3 3.2 2.6-.4.3.7.9 2.2 1.3 1.6.4 5.6 2 8.8 3.6 8.2 4.1 25.1 9.5 35.3 11.3 12.6 2.2 143 2.2 155.6 0 13.6-2.4 35.3-9.7 34.2-11.5-.3-.5 0-1.2.6-1.6.8-.4.9-.3.5.4-1 1.6-.5 1.5 5.3-.7 5.8-2.3 16.8-9.8 26.4-17.9 12.8-10.7 24-25.6 32.2-42.7 4.1-8.5 31.5-88.9 31.5-92.4 0-.9 2.5-9 5.5-18 9.1-27.2 10.9-36.7 10.9-56.1 0-17.2-1.1-24.2-6.5-41-3.3-10.1-13.2-29.8-19-37.5-6.6-8.8-20.8-22.9-27.6-27.5-9-6.1-44.7-32.3-46.5-34.1-2-2-10.4-7.9-11.2-7.9S334 63.2 332.1 61.3c-1.8-1.9-11.9-8.6-15.7-10.6-1.7-.9-3.5-1.3-3.9-.9-.5.4-.5.2-.2-.4.6-1-11.7-7.4-14.3-7.4-.5 0-4.2-1.1-8.3-2.4-14.4-4.7-37.1-7.2-51.7-5.6zm-55.9 116.6c32.5 16.2 36.8 18.7 39.1 22.1 2.8 4 4.1 8.3 13.3 41.8 3.2 11.5 6.8 24.8 8.1 29.5 3.5 12.3 3 17-1.8 17-.9 0-10.6-4.5-21.5-9.9s-27-13.3-35.8-17.6c-15.8-7.6-21.3-11.4-24.1-16.8-2-3.8-22.4-77.3-22.4-80.7 0-2.5 3.9-5.2 6.5-4.4 1.1.4 18.4 8.9 38.6 19zm152.7-12.8c1 .7.9 4.7-.8 20.8-1.2 10.9-2.7 27.1-3.5 35.9-1.6 17.3-4.9 49.8-6.5 63.5-.6 4.7-1.3 11.9-1.6 16-.7 9.3-2 15.2-4.3 20.6-2 4.4-15.4 25-21.8 33.3-.6.9-7.7 11.3-15.6 23.1-30.8 46.2-46.1 68.5-47.1 69.2-1.8 1.3-3.5.9-4.4-1-.5-1 .8-16.6 3.4-40.7 2.3-21.5 4.9-46 5.8-54.5 4.2-39.7 5.7-51.8 6.8-56 1.4-5.2 7.6-15.3 24.1-39.5 6.4-9.4 18.6-27.4 27.1-40 24.1-35.9 33.8-49.9 35-50.7 1.4-1 1.8-1 3.4 0z"/><path fill="#2a5500" stroke="#2a5500" stroke-width="3" d="M139.1 134.4c-1 1.2-.1 5.6 4.3 21.3 3 10.9 7.8 28.3 10.6 38.6 5.2 19.7 6.6 23.3 10.3 26.8 1.2 1.1 18.8 10.4 39 20.5 30.5 15.2 37.1 18.2 38.8 17.4 1-.6 1.9-1.9 1.9-2.9 0-1.1-3.2-13.3-7.1-27.3-3.9-13.9-8.4-30.2-10-36.3-3.6-13.1-5.8-18.4-9-21.4-2.7-2.6-73.7-38.1-76.1-38.1-.9 0-2.1.6-2.7 1.4zm177.4 27.1c-8.8 12.9-25 36.7-36 53-11 16.2-22.6 33.3-25.9 38.1-8.5 12.4-9.4 15.4-11.6 39.2-1 11.4-2.4 25-3 30.2-.5 5.2-1.2 11.5-1.5 14s-.9 9.2-1.5 15c-1 10.5-1.3 13.4-5.1 48.2-1.1 10.3-1.7 19.2-1.4 19.8 1.1 1.8 3.1-.6 13.8-16.4 5.6-8.3 16.1-23.9 23.3-34.6 37.6-55.4 48.8-72.5 50-76.1 1.8-5 2.8-12 5.9-41.4 4.1-39.1 9.3-88.3 10.6-99.3 1.1-9.9.9-13.2-.9-13.2-.4 0-8 10.6-16.7 23.5z"/></svg>